<svg xmlns="http://www.w3.org/2000/svg" fill="none" viewBox="0 0 112 112">
  <g clip-path="url(#dXA1UFaylSuma)">
    <path d="M112 56a56.002 56.002 0 01-95.604 39.6A56.003 56.003 0 11112 56z" fill="#32A7FF"/>
    <path d="M100.772 47.38l-1.152-2.693.296-.066 2.141 2.858-1.285-.099zm-10.358-.757l7.737-1.62.969 2.265-8.706-.645zM84.711 24.39L95.42 38.655l2.133 4.958-7.678 1.607-5.163-20.829zm27.111 36.087c.06-.757.099-1.515.132-2.279l-6.77-9.008 6.454.48a57.992 57.992 0 00-.184-1.494l-7.442-.547-2.502-3.332 8.837-1.844c-.118-.48-.243-.954-.375-1.429L100.529 43l-3.82-5.09L83.552 7.244a48.812 48.812 0 00-2.087-1.12l11.517 26.802-9.173-12.21-3.806-15.33c-.566-.27-1.14-.526-1.712-.776l3.246 13.09-12.07-16.073a61.239 61.239 0 00-2.226-.507l15.212 20.242 5.992 24.148-3.345.705-82.802-6.138c-.138.48-.276.968-.401 1.449l77.974 5.782L.553 63.889c.073.487.145.975.23 1.455L85.2 47.703l3.845.283 10.668 43c.395-.48.784-.974 1.153-1.474L90.592 48.105l9.18.678 9.93 23.133c.224-.75.428-1.514.619-2.278l-8.89-20.73 1.798.131 8.593 11.432" fill="#62C6FF"/>
    <path d="M23.311 35.046h1.765c2.193 0 3.346-1.277 3.346-3.194 0-2.1-1.462-3.134-3.649-3.134h-1.462v6.328zm0-9.792h1.462c1.884 0 3.135-1.1 3.135-2.588 0-1.613-.948-2.647-2.924-2.647h-1.673v5.235zm-4.194-8.706h5.9c4.498 0 7.086 1.89 7.086 5.664 0 1.91-.942 3.49-2.707 4.557 2.305 1.462 3.227 2.68 3.227 5.42 0 4.345-2.924 6.32-7.362 6.32h-6.144V16.55zm15.903 0h4.201V38.51H35.02V16.549zm7.42 21.962V16.549h4.202v9.067h.059l5.446-9.067h4.596l-5.663 8.857 6.295 13.104h-4.708l-4.386-9.22-1.646 2.503v6.717H42.44zm16.608 0V16.549h11.504v3.713h-7.31v5.051h5.572v3.708H63.25v5.782h7.606v3.707H59.05zm-22.35 2.746l-.823 3.714h-4.9l-4.043 18.247h-4.201l4.05-18.247h-4.9l.824-3.714h13.993zm1.627 15.455c-.547 2.437.368 3.102 2.041 3.102s2.89-.665 3.424-3.095l1.989-8.956c.54-2.43-.375-3.095-2.048-3.095-1.68 0-2.89.665-3.424 3.095l-1.982 8.95zm-2.338-8.396c1.198-5.413 4.49-7.362 8.56-7.362 4.083 0 6.507 1.95 5.308 7.362l-1.738 7.856c-1.205 5.413-4.491 7.362-8.568 7.362-4.082 0-6.506-1.949-5.307-7.362l1.745-7.85M17.925 65.708h3.898l2.95 14.355h.06l3.009-14.355h4.043l3.05 14.355h.058l2.918-14.355h3.924l-4.807 21.968h-4.036l-3.076-15.028h-.059l-3.312 15.027h-4.017L17.93 65.706m29.166 15.456c0 2.436 1.067 3.101 2.74 3.101 1.672 0 2.739-.665 2.739-3.095V72.22c0-2.436-1.067-3.101-2.74-3.101-1.672 0-2.739.665-2.739 3.101v8.943zm-4.195-8.396c0-5.413 2.858-7.362 6.934-7.362 4.077 0 6.934 1.949 6.934 7.362v7.85c0 5.412-2.857 7.361-6.934 7.361-4.082 0-6.934-1.949-6.934-7.362v-7.85zm20.954 2.495h2.16c1.857 0 2.983-.915 2.983-3.042s-1.126-3.042-2.983-3.042h-2.16v6.084zm5.663 12.413l-3.654-8.949h-2.009v8.95H59.66V65.706h6.085c5.044 0 7.448 2.436 7.448 6.572 0 2.739-.968 4.714-3.313 5.597l4.136 9.798h-4.498zm6.566 0V65.706h4.201v9.068h.06l5.445-9.067h4.59l-5.657 8.857 6.296 13.104h-4.715l-4.38-9.22-1.645 2.503v6.717h-4.195m-1.357 5.578l-1.455 2.93-.198-2.93h-1.159l.284 4.003h1.698l2.022-4.003h-1.185m5.63.954l.198-.954h-2.918l-.856 4.003h2.964l.197-.954h-1.81c.02-.093.131-.593.138-.66h1.672l.171-.822h-1.666l.132-.613h1.778zm2.865 2.048l.638-3.01H82.73l-.856 4.018h2.766l.224-1.008H83.23zm6.92-2.627c-.23-.283-.658-.408-1.409-.408-1.112 0-1.91.25-2.166 1.475l-.23 1.1c-.106.487-.067.842.131 1.086.237.283.659.408 1.416.408 1.113 0 1.91-.25 2.16-1.468l.237-1.107c.105-.487.06-.842-.132-1.086m-2.62 2.074l.184-.882c.131-.534.283-.593.823-.593.29 0 .46.013.54.106.066.079.066.223.013.467l-.184.882c-.119.554-.303.6-.824.6-.29 0-.46-.014-.526-.106-.066-.072-.073-.224-.027-.474zm-33.934 1.56l.856-4.003h2.009c.987 0 1.277.422 1.053 1.469-.237 1.12-.573 1.514-1.686 1.514h-.948l-.217 1.02h-1.067zm2.213-1.955c.428-.013.494-.066.605-.58.086-.408.053-.54-.368-.54h-.725l-.243 1.12h.73zm3.924-2.054h2.055c.922.02 1.337.217 1.12 1.218-.139.665-.224 1.053-1.015 1.231l-.013.046c.435.013.665.257.573.705l-.178.81h-1.06l.119-.56c.072-.303-.014-.5-.33-.5h-.83l-.23 1.06h-1.067l.856-4.01zm1.462 2.021c.461 0 .481-.171.58-.625.072-.363 0-.461-.35-.461h-.822l-.23 1.086h.822zm3.32.553l.236-1.132c.264-1.232 1.08-1.469 2.167-1.469 1.08 0 1.797.237 1.54 1.469l-.243 1.132c-.263 1.232-1.08 1.469-2.166 1.469-1.08 0-1.798-.237-1.535-1.469zm2.627-.118l.19-.902c.132-.593-.065-.652-.612-.652-.56 0-.75.066-.895.652l-.191.902c-.112.599.066.658.612.658.56 0 .77-.059.896-.658zM43.212 93.08c-.455-.527-1.12-.823-1.87-.823a3.437 3.437 0 00-3.28 2.805c-.118.75.066 1.455.52 1.982.455.534 1.12.83 1.877.83a3.425 3.425 0 003.28-2.799 2.436 2.436 0 00-.527-1.995zm-2.66 4.162c-.567 0-1.068-.224-1.41-.626a1.884 1.884 0 01-.395-1.547c.184-1.205 1.317-2.18 2.502-2.18.573 0 1.074.217 1.416.612.35.415.494.968.395 1.555a2.647 2.647 0 01-2.509 2.186zm9.344-4.162c-.461-.527-1.12-.823-1.877-.823a3.437 3.437 0 00-3.273 2.805c-.119.75.066 1.455.514 1.982.454.534 1.12.83 1.883.83a3.425 3.425 0 003.273-2.799 2.436 2.436 0 00-.527-1.995m-2.66 4.162c-.567 0-1.06-.224-1.403-.626a1.889 1.889 0 01-.408-1.547c.197-1.205 1.317-2.18 2.515-2.18.573 0 1.067.217 1.41.612.355.415.493.968.395 1.555-.185 1.204-1.317 2.186-2.503 2.186" fill="#fff"/>
  </g>
  <defs>
    <clipPath id="dXA1UFaylSuma">
      <path fill="#fff" d="M0 0h112v112H0z"/>
    </clipPath>
  </defs>
</svg>
